<svg id="Layer_1" data-name="Layer 1" xmlns="http://www.w3.org/2000/svg" viewBox="0 0 551.08 144.57"><defs><style>.cls-1{fill:#0094c9;}.cls-2{fill:#003d5b;}</style></defs><title>GBHI_logo_RGB</title><path class="cls-1" d="M187.91,336.75h0a5.34,5.34,0,0,0-4.29-5.1c-29.72-4.87-53.88-31.78-53.88-61.62,0-28.66,18.82-53.9,50.19-62.46l-.15,74a8.42,8.42,0,1,0,9-.09V201.49h0a4.41,4.41,0,0,0-5.07-4.36c-37.46,5.55-64.22,37.12-64.22,72.61,0,34.15,25.17,66.2,62.89,71.81A4.85,4.85,0,0,0,187.91,336.75Z" transform="translate(-119.48 -197.07)"/><path class="cls-2" d="M204.58,201.61v.9a4.57,4.57,0,0,0,3.9,4.49c29.9,4.7,54.27,31.71,54.27,61.69,0,28.65-18.82,53.89-50.19,62.45l.16-74a8.43,8.43,0,1,0-9,.09v80h0a4.42,4.42,0,0,0,5.07,4.37C246.25,336,273,304.46,273,269c0-34.25-25.33-66.4-63.25-71.86A4.55,4.55,0,0,0,204.58,201.61Z" transform="translate(-119.48 -197.07)"/><path class="cls-2" d="M143,269.89a49.58,49.58,0,0,1,28.29-45.14,3.73,3.73,0,0,0,2.09-3.35h0a3.9,3.9,0,0,0-5.59-3.51,57.65,57.65,0,0,0-32.49,51.78c0,21.73,12.57,42.33,32.53,51.58a3.9,3.9,0,0,0,5.55-3.52v-.25a3.87,3.87,0,0,0-2.19-3.49C154.84,306,143,288.74,143,269.89Z" transform="translate(-119.48 -197.07)"/><path class="cls-1" d="M248.83,269.15a49.57,49.57,0,0,1-28.21,45.1,3.87,3.87,0,0,0-2.17,3.48h0a3.83,3.83,0,0,0,5.5,3.45,57.59,57.59,0,0,0,32.57-51.81c0-21.73-12.56-42.33-32.52-51.58a3.9,3.9,0,0,0-5.55,3.52v.25a3.87,3.87,0,0,0,2.19,3.49C237,233,248.83,250.3,248.83,269.15Z" transform="translate(-119.48 -197.07)"/><path class="cls-1" d="M330.26,238.33c-9.14,0-15.43-6.41-15.43-15.09v-.09A15.07,15.07,0,0,1,330.22,208c5.29,0,8.47,1.43,11.53,4l-4.06,4.9a10.85,10.85,0,0,0-7.68-3c-4.69,0-8.43,4.15-8.43,9.14v.08c0,5.37,3.69,9.31,8.89,9.31a10.25,10.25,0,0,0,6.08-1.76v-4.19h-6.5v-5.58H342.8v12.75A19,19,0,0,1,330.26,238.33Z" transform="translate(-119.48 -197.07)"/><path class="cls-1" d="M352.37,237.83V208.47h6.45V232h14.64v5.87Z" transform="translate(-119.48 -197.07)"/><path class="cls-1" d="M393.26,238.33c-9.06,0-15.56-6.75-15.56-15.09v-.09c0-8.34,6.59-15.18,15.64-15.18s15.56,6.75,15.56,15.1v.08C408.9,231.5,402.32,238.33,393.26,238.33Zm8.89-15.18a8.91,8.91,0,0,0-8.89-9.22c-5.2,0-8.81,4.11-8.81,9.14v.08a8.92,8.92,0,0,0,8.89,9.23c5.2,0,8.81-4.11,8.81-9.14Z" transform="translate(-119.48 -197.07)"/><path class="cls-1" d="M432,237.83H418V208.47h13.63c6,0,9.69,3,9.69,7.59v.09a6.82,6.82,0,0,1-3.86,6.33c3.4,1.3,5.5,3.27,5.5,7.21v.09C443,235.15,438.59,237.83,432,237.83Zm2.93-20.67c0-1.93-1.51-3-4.23-3h-6.38v6.2h6c2.85,0,4.65-.92,4.65-3.1Zm1.64,11.74c0-2-1.47-3.19-4.78-3.19h-7.47v6.46H432c2.85,0,4.57-1,4.57-3.19Z" transform="translate(-119.48 -197.07)"/><path class="cls-1" d="M473.49,237.83l-2.69-6.58H458.39l-2.68,6.58h-6.59l12.58-29.57h6l12.58,29.57ZM464.6,216l-3.9,9.52h7.8Z" transform="translate(-119.48 -197.07)"/><path class="cls-1" d="M489.08,237.83V208.47h6.46V232h14.64v5.87Z" transform="translate(-119.48 -197.07)"/><path class="cls-2" d="M330.09,283.79h-14V254.43h13.62c6,0,9.69,3,9.69,7.59v.09a6.83,6.83,0,0,1-3.86,6.33c3.4,1.3,5.5,3.27,5.5,7.21v.09C341.08,281.1,336.72,283.79,330.09,283.79ZM333,263.11c0-1.93-1.51-3-4.24-3h-6.37v6.21h5.95c2.85,0,4.66-.92,4.66-3.1Zm1.63,11.74c0-2-1.47-3.18-4.78-3.18h-7.46v6.46h7.67c2.85,0,4.57-1,4.57-3.19Z" transform="translate(-119.48 -197.07)"/><path class="cls-2" d="M367.58,283.79l-6.29-9.4h-5.07v9.4h-6.46V254.43h13.42c6.92,0,11.07,3.65,11.07,9.69v.08a9.11,9.11,0,0,1-6.29,9.1l7.17,10.49Zm.13-19.34c0-2.76-1.93-4.19-5.08-4.19h-6.41v8.43h6.54c3.14,0,4.95-1.68,4.95-4.15Z" transform="translate(-119.48 -197.07)"/><path class="cls-2" d="M404.29,283.79l-2.69-6.59H389.19l-2.69,6.59h-6.58l12.58-29.57h6L411,283.79ZM395.39,262l-3.9,9.52h7.8Z" transform="translate(-119.48 -197.07)"/><path class="cls-2" d="M418.57,283.79V254.43H425v29.36Z" transform="translate(-119.48 -197.07)"/><path class="cls-2" d="M457,283.79l-14.22-18.67v18.67h-6.37V254.43h5.95l13.76,18.08V254.43h6.37v29.36Z" transform="translate(-119.48 -197.07)"/><path class="cls-2" d="M505.24,283.79V272H493.33v11.79h-6.46V254.43h6.46v11.62h11.91V254.43h6.46v29.36Z" transform="translate(-119.48 -197.07)"/><path class="cls-2" d="M523.1,283.79V254.43h22.14v5.75H529.52v5.95h13.84v5.75H529.52V278h15.93v5.75Z" transform="translate(-119.48 -197.07)"/><path class="cls-2" d="M576.4,283.79l-2.68-6.59H561.31l-2.69,6.59H552l12.58-29.57h6l12.59,29.57ZM567.51,262l-3.9,9.52h7.8Z" transform="translate(-119.48 -197.07)"/><path class="cls-2" d="M591,283.79V254.43h6.46v23.49h14.63v5.87Z" transform="translate(-119.48 -197.07)"/><path class="cls-2" d="M629.45,260.39v23.4H623v-23.4h-8.93v-6h24.32v6Z" transform="translate(-119.48 -197.07)"/><path class="cls-2" d="M664.1,283.79V272H652.19v11.79h-6.46V254.43h6.46v11.62H664.1V254.43h6.46v29.36Z" transform="translate(-119.48 -197.07)"/><path class="cls-1" d="M316.13,330.27V300.91h6.45v29.36Z" transform="translate(-119.48 -197.07)"/><path class="cls-1" d="M353.87,330.27l-14.22-18.66v18.66h-6.37V300.91h6L353,319V300.91h6.37v29.36Z" transform="translate(-119.48 -197.07)"/><path class="cls-1" d="M380.21,330.69a18.66,18.66,0,0,1-12.46-4.7l3.82-4.57a13.46,13.46,0,0,0,8.76,3.56c2.64,0,4.24-1,4.24-2.76v-.09c0-1.63-1-2.47-5.92-3.73-5.91-1.51-9.72-3.14-9.72-9v-.09c0-5.32,4.27-8.85,10.27-8.85a17,17,0,0,1,10.9,3.74l-3.35,4.86c-2.6-1.8-5.16-2.89-7.63-2.89s-3.78,1.13-3.78,2.55v.09c0,1.93,1.26,2.56,6.33,3.86,6,1.55,9.31,3.69,9.31,8.8v.09C391,327.42,386.54,330.69,380.21,330.69Z" transform="translate(-119.48 -197.07)"/><path class="cls-1" d="M412.63,306.87v23.4h-6.46v-23.4h-8.93v-6h24.32v6Z" transform="translate(-119.48 -197.07)"/><path class="cls-1" d="M431.16,330.27V300.91h6.46v29.36Z" transform="translate(-119.48 -197.07)"/><path class="cls-1" d="M462.61,306.87v23.4h-6.46v-23.4h-8.93v-6h24.32v6Z" transform="translate(-119.48 -197.07)"/><path class="cls-1" d="M492.09,330.73c-7.88,0-12.71-4.4-12.71-13V300.91h6.46v16.61c0,4.78,2.39,7.26,6.33,7.26s6.34-2.4,6.34-7V300.91H505v16.57C505,326.37,500,330.73,492.09,330.73Z" transform="translate(-119.48 -197.07)"/><path class="cls-1" d="M528.2,306.87v23.4h-6.46v-23.4h-8.93v-6h24.32v6Z" transform="translate(-119.48 -197.07)"/><path class="cls-1" d="M545.44,330.27V300.91h22.14v5.75H551.85v5.95h13.84v5.75H551.85v6.16h15.94v5.75Z" transform="translate(-119.48 -197.07)"/></svg>